# xmcd CD database file
#
# Track frame offsets:
#	150
#	26114
#	27294
#
# Disc length: 561 seconds
#
# Revision: 0
# Processed by: cddbd v1.5.2PL0 Copyright (c) Steve Scherf et al.
# Submitted via: CDex 1.70beta2
#
DISCID=1d022f03
DTITLE=Boogaloo en deux - Boogaloo en deux Demo
DYEAR=2012
DGENRE=Jazz
TTITLE0=Dreamboat
TTITLE1=Book us!
TTITLE2=Let Music make You happy
EXTD=YEAR: 2012
EXTT0=
EXTT1=
EXTT2=
PLAYORDER=
